<?xml version="1.0" encoding="UTF-8" standalone="no"?>
<svg
   xmlns:dc="http://purl.org/dc/elements/1.1/"
   xmlns:cc="http://creativecommons.org/ns#"
   xmlns:rdf="http://www.w3.org/1999/02/22-rdf-syntax-ns#"
   xmlns:svg="http://www.w3.org/2000/svg"
   xmlns="http://www.w3.org/2000/svg"
   xmlns:xlink="http://www.w3.org/1999/xlink"
   xmlns:sodipodi="http://sodipodi.sourceforge.net/DTD/sodipodi-0.dtd"
   xmlns:inkscape="http://www.inkscape.org/namespaces/inkscape"
   id="svg8331"
   viewBox="0 0 298.29614 44.695663"
   version="1.1"
   sodipodi:docname="pixelizelogotransparent.svg"
   inkscape:version="0.92.4 (5da689c313, 2019-01-14)">
  <metadata
     id="metadata855">
    <rdf:RDF>
      <cc:Work
         rdf:about="">
        <dc:format>image/svg+xml</dc:format>
        <dc:type
           rdf:resource="http://purl.org/dc/dcmitype/StillImage" />
      </cc:Work>
    </rdf:RDF>
  </metadata>
  <sodipodi:namedview
     pagecolor="#ffffff"
     bordercolor="#666666"
     borderopacity="1"
     objecttolerance="10"
     gridtolerance="10"
     guidetolerance="10"
     inkscape:pageopacity="0"
     inkscape:pageshadow="2"
     inkscape:window-width="1600"
     inkscape:window-height="837"
     id="namedview853"
     showgrid="false"
     inkscape:zoom="2.7355407"
     inkscape:cx="126.23518"
     inkscape:cy="-5.5023453"
     inkscape:window-x="1912"
     inkscape:window-y="174"
     inkscape:window-maximized="1"
     inkscape:current-layer="g1476" />
  <defs
     id="defs8325">
    <linearGradient
       id="linearGradient9385">
      <stop
         id="stop9381"
         offset="0"
         stop-color="#ff0080" />
      <stop
         id="stop9383"
         offset="1"
         stop-color="#9f80ff" />
    </linearGradient>
    <linearGradient
       id="linearGradient7421">
      <stop
         id="stop7417"
         offset="0"
         stop-color="#00ffd6" />
      <stop
         id="stop7419"
         offset="1"
         stop-color="#1ed4ff" />
    </linearGradient>
    <linearGradient
       id="linearGradient7393">
      <stop
         id="stop7389"
         offset="0"
         stop-color="#00ffd6" />
      <stop
         id="stop7391"
         offset="1"
         stop-color="#f4ff80" />
    </linearGradient>
    <linearGradient
       id="linearGradient1275">
      <stop
         id="stop1271"
         offset="0"
         stop-color="#00abff" />
      <stop
         id="stop1273"
         offset="1"
         stop-color="#fb00ff" />
    </linearGradient>
    <linearGradient
       id="linearGradient1221">
      <stop
         id="stop1217"
         offset="0"
         stop-color="#ff0080" />
      <stop
         id="stop1219"
         offset="1"
         stop-color="#ffb380" />
    </linearGradient>
    <linearGradient
       id="linearGradient1223"
       x1="11.707589"
       x2="237.55688"
       y1="394.3736"
       y2="453.42273"
       gradientUnits="userSpaceOnUse"
       xlink:href="#linearGradient1221" />
    <linearGradient
       id="linearGradient1269"
       x1="2.058198"
       x2="30.876593"
       y1="117.38485"
       y2="121.54259"
       gradientUnits="userSpaceOnUse"
       xlink:href="#linearGradient1275" />
    <linearGradient
       id="linearGradient7387"
       x1="160.53964"
       x2="166.05101"
       y1="5.2548008"
       y2="5.2548008"
       gradientUnits="userSpaceOnUse"
       xlink:href="#linearGradient7393" />
    <linearGradient
       id="linearGradient7415"
       x1="162.5509"
       x2="166.05101"
       y1="4.1990514"
       y2="5.2548008"
       gradientTransform="translate(-17.031323 12.717988)"
       gradientUnits="userSpaceOnUse"
       xlink:href="#linearGradient7421" />
    <linearGradient
       id="linearGradient9781"
       x1="361.17578"
       x2="409.19492"
       y1="844.92383"
       y2="846.22943"
       gradientTransform="matrix(.26458 0 0 .26458 56.35625 -23.283333)"
       gradientUnits="userSpaceOnUse"
       xlink:href="#linearGradient9385" />
    <linearGradient
       id="linearGradient1807"
       x1="340.14453"
       x2="393.05634"
       y1="1036.9434"
       y2="1037.406"
       gradientTransform="rotate(15 502.15547 1190.4541)"
       gradientUnits="userSpaceOnUse"
       xlink:href="#linearGradient1221" />
  </defs>
  <g
     id="layer1"
     transform="translate(-3062.3626,-1737.151)">
    <g
       id="layer1-9"
       transform="translate(3096.6059,1594.7905)">
      <g
         id="g1476"
         transform="translate(29.145883,-439.86234)">
        <g
           aria-label="Pixelize"
           style="font-weight:700;font-size:60.39954758px;line-height:1.25;font-family:Raleway;-inkscape-font-specification:'Raleway, Bold';font-variant-ligatures:normal;font-variant-caps:normal;font-variant-numeric:normal;font-feature-settings:normal;text-align:start;letter-spacing:0;word-spacing:0;fill:#ffffff;stroke-width:3.3127389"
           id="text1405">
          <path
             d="m 20.907585,626.31451 v -42.88367 h 18.180264 q 2.959578,0 5.435959,1.26839 2.536781,1.20799 4.348768,3.26157 1.811986,1.99319 2.838779,4.59037 1.026792,2.53678 1.026792,5.13396 0,2.71798 -0.966393,5.31516 -0.966393,2.53678 -2.71798,4.52996 -1.751586,1.99319 -4.227968,3.20118 -2.476381,1.20799 -5.435959,1.20799 H 29.242723 v 14.37509 z m 8.335138,-21.68343 h 9.663927 q 2.295183,0 3.805172,-1.87239 1.570388,-1.87239 1.570388,-5.07356 0,-1.63079 -0.483196,-2.89918 -0.483197,-1.32879 -1.268391,-2.23478 -0.785194,-0.906 -1.872386,-1.32879 -1.026792,-0.4832 -2.113984,-0.4832 h -9.30153 z"
             style="-inkscape-font-specification:'Raleway, Bold';font-variant-ligatures:normal;font-variant-caps:normal;font-variant-numeric:normal;font-feature-settings:normal;text-align:start"
             id="path857"
             inkscape:connector-curvature="0" />
          <path
             d="m 57.754139,626.31451 v -31.64936 h 8.09354 v 31.64936 z m 0,-36.05853 v -8.03314 h 8.09354 v 8.03314 z"
             style="-inkscape-font-specification:'Raleway, Bold';font-variant-ligatures:normal;font-variant-caps:normal;font-variant-numeric:normal;font-feature-settings:normal;text-align:start"
             id="path859"
             inkscape:connector-curvature="0" />
          <path
             d="m 78.221094,594.66515 6.825149,9.90553 0.483197,1.08719 0.603995,-1.08719 6.764749,-9.90553 h 8.335136 l -11.294713,15.88508 11.475913,15.76428 h -8.335137 l -7.006347,-9.84512 -0.543596,-1.02679 -0.483197,1.02679 -6.945948,9.84512 H 69.765158 L 81.180672,610.55023 69.946356,594.66515 Z"
             style="-inkscape-font-specification:'Raleway, Bold';font-variant-ligatures:normal;font-variant-caps:normal;font-variant-numeric:normal;font-feature-settings:normal;text-align:start"
             id="path861"
             inkscape:connector-curvature="0" />
          <path
             d="m 118.67463,626.91851 q -3.80517,0 -6.88554,-1.26839 -3.08038,-1.32879 -5.25477,-3.56357 -2.17438,-2.23479 -3.38237,-5.19437 -1.14759,-2.95957 -1.14759,-6.22115 0,-3.38237 1.14759,-6.34195 1.14759,-3.01998 3.32198,-5.25476 2.17438,-2.29518 5.25476,-3.62397 3.14077,-1.32879 7.00634,-1.32879 3.86557,0 6.88555,1.32879 3.08038,1.32879 5.19436,3.56357 2.17439,2.23478 3.26158,5.19436 1.14759,2.95958 1.14759,6.16075 0,0.7852 -0.0604,1.50999 0,0.7248 -0.1208,1.20799 h -24.46182 q 0.1812,1.87239 0.906,3.32198 0.72479,1.44959 1.87238,2.47638 1.1476,1.02679 2.59718,1.57039 1.44959,0.54359 3.01998,0.54359 2.41598,0 4.52997,-1.14759 2.17438,-1.20799 2.95958,-3.14077 l 6.94594,1.93278 q -1.75158,3.62397 -5.61715,5.97956 -3.80518,2.29518 -9.12034,2.29518 z m 8.21434,-19.08626 q -0.302,-3.56357 -2.65758,-5.67755 -2.29518,-2.17439 -5.61716,-2.17439 -1.63078,0 -3.08037,0.604 -1.38919,0.54359 -2.47638,1.57039 -1.0872,1.02679 -1.81199,2.47638 -0.6644,1.44959 -0.78519,3.20117 z"
             style="-inkscape-font-specification:'Raleway, Bold';font-variant-ligatures:normal;font-variant-caps:normal;font-variant-numeric:normal;font-feature-settings:normal;text-align:start"
             id="path863"
             inkscape:connector-curvature="0" />
          <path
             d="m 140.15328,582.22284 h 8.09354 v 33.94455 q 0,1.75159 0.84559,2.71798 0.84559,0.96639 2.41598,0.96639 0.7248,0 1.57039,-0.2416 0.90599,-0.24159 1.69119,-0.60399 l 1.08719,6.16075 q -1.63079,0.7852 -3.80517,1.20799 -2.17439,0.4228 -3.92597,0.4228 -3.80517,0 -5.91916,-1.99318 -2.05358,-2.05359 -2.05358,-5.79836 z"
             style="-inkscape-font-specification:'Raleway, Bold';font-variant-ligatures:normal;font-variant-caps:normal;font-variant-numeric:normal;font-feature-settings:normal;text-align:start"
             id="path865"
             inkscape:connector-curvature="0" />
          <path
             d="m 159.32448,626.31451 v -31.64936 h 8.09354 v 31.64936 z m 0,-36.05853 v -8.03314 h 8.09354 v 8.03314 z"
             style="-inkscape-font-specification:'Raleway, Bold';font-variant-ligatures:normal;font-variant-caps:normal;font-variant-numeric:normal;font-feature-settings:normal;text-align:start"
             id="path867"
             inkscape:connector-curvature="0" />
          <path
             d="m 172.66428,621.36175 17.63666,-21.01904 h -16.91187 v -5.67756 h 25.42821 v 4.95276 l -17.51587,21.01905 h 17.81787 v 5.67755 h -26.455 z"
             style="-inkscape-font-specification:'Raleway, Bold';font-variant-ligatures:normal;font-variant-caps:normal;font-variant-numeric:normal;font-feature-settings:normal;text-align:start"
             id="path869"
             inkscape:connector-curvature="0" />
          <path
             d="m 218.35748,626.91851 q -3.80517,0 -6.88555,-1.26839 -3.08038,-1.32879 -5.25476,-3.56357 -2.17438,-2.23479 -3.38237,-5.19437 -1.1476,-2.95957 -1.1476,-6.22115 0,-3.38237 1.1476,-6.34195 1.14759,-3.01998 3.32197,-5.25476 2.17439,-2.29518 5.25476,-3.62397 3.14078,-1.32879 7.00635,-1.32879 3.86557,0 6.88555,1.32879 3.08037,1.32879 5.19436,3.56357 2.17438,2.23478 3.26157,5.19436 1.1476,2.95958 1.1476,6.16075 0,0.7852 -0.0604,1.50999 0,0.7248 -0.1208,1.20799 h -24.46182 q 0.1812,1.87239 0.90599,3.32198 0.7248,1.44959 1.87239,2.47638 1.14759,1.02679 2.59718,1.57039 1.44959,0.54359 3.01998,0.54359 2.41598,0 4.52996,-1.14759 2.17439,-1.20799 2.95958,-3.14077 l 6.94595,1.93278 q -1.75159,3.62397 -5.61716,5.97956 -3.80517,2.29518 -9.12033,2.29518 z m 8.21434,-19.08626 q -0.302,-3.56357 -2.65758,-5.67755 -2.29518,-2.17439 -5.61716,-2.17439 -1.63079,0 -3.08038,0.604 -1.38919,0.54359 -2.47638,1.57039 -1.08719,1.02679 -1.81198,2.47638 -0.6644,1.44959 -0.7852,3.20117 z"
             style="-inkscape-font-specification:'Raleway, Bold';font-variant-ligatures:normal;font-variant-caps:normal;font-variant-numeric:normal;font-feature-settings:normal;text-align:start"
             id="path871"
             inkscape:connector-curvature="0" />
        </g>
        <g
           id="g1425"
           transform="matrix(0,1.5951,-1.5951,0,112.84004,-390.54837)"
           style="fill-rule:evenodd">
          <rect
             id="rect1407"
             width="3.5291009"
             height="9.7097092"
             x="622.5321"
             y="86.686081"
             ry="0"
             style="fill:#00ff00;stroke-width:0.1365878" />
          <rect
             id="rect1409"
             width="3.5291009"
             height="3.5291009"
             x="629.3269"
             y="106.23177"
             ry="0"
             style="fill:#ff8900;stroke-width:0.08234569" />
          <rect
             id="rect1411"
             width="3.5291009"
             height="15.151869"
             x="629.3269"
             y="74.939621"
             ry="0"
             style="fill:#00b3ff;stroke-width:0.1706247" />
          <rect
             id="rect1413"
             width="3.5291009"
             height="3.5291009"
             x="629.3269"
             y="94.374222"
             ry="0"
             style="fill:#ff0077;stroke-width:0.08234569" />
          <rect
             id="rect1415"
             width="3.5291009"
             height="3.5291009"
             x="614.86932"
             y="90.005753"
             ry="0"
             style="fill:#00ffff;stroke-width:0.08234569" />
          <rect
             id="rect1417"
             width="3.5291009"
             height="3.5291009"
             x="622.5321"
             y="100.40483"
             ry="0"
             style="fill:#ffff00;stroke-width:0.08234569" />
          <rect
             id="rect1419"
             width="3.5291009"
             height="15.923175"
             x="622.09808"
             y="63.773392"
             ry="0"
             style="fill:#9400ff;stroke-width:0.17491361" />
          <rect
             id="rect1421"
             width="3.5291009"
             height="15.232743"
             x="614.86932"
             y="71.403793"
             ry="0"
             style="fill:#ffff00;stroke-width:0.17107944" />
          <rect
             id="rect1423"
             width="3.5291009"
             height="10.143684"
             x="614.86932"
             y="100.33842"
             ry="0"
             style="fill:#ff0077;stroke-width:0.13960683" />
        </g>
      </g>
    </g>
  </g>
</svg>
